<?xml version="1.0" encoding="UTF-8" standalone="no"?>
<!-- Generator: Adobe Illustrator 16.0.0, SVG Export Plug-In . SVG Version: 6.00 Build 0)  -->

<svg
   xmlns:dc="http://purl.org/dc/elements/1.1/"
   xmlns:cc="http://creativecommons.org/ns#"
   xmlns:rdf="http://www.w3.org/1999/02/22-rdf-syntax-ns#"
   xmlns:svg="http://www.w3.org/2000/svg"
   xmlns="http://www.w3.org/2000/svg"
   xmlns:sodipodi="http://sodipodi.sourceforge.net/DTD/sodipodi-0.dtd"
   xmlns:inkscape="http://www.inkscape.org/namespaces/inkscape"
   version="1.1"
   id="Layer_7"
   x="0px"
   y="0px"
   width="100px"
   height="100px"
   viewBox="0 0 100 100"
   enable-background="new 0 0 100 100"
   xml:space="preserve"
   inkscape:version="0.48.5 r10040"
   sodipodi:docname="message5.svg"><metadata
   id="metadata9"><rdf:RDF><cc:Work
       rdf:about=""><dc:format>image/svg+xml</dc:format><dc:type
         rdf:resource="http://purl.org/dc/dcmitype/StillImage" /></cc:Work></rdf:RDF></metadata><defs
   id="defs7" /><sodipodi:namedview
   pagecolor="#ffffff"
   bordercolor="#666666"
   borderopacity="1"
   objecttolerance="10"
   gridtolerance="10"
   guidetolerance="10"
   inkscape:pageopacity="0"
   inkscape:pageshadow="2"
   inkscape:window-width="728"
   inkscape:window-height="480"
   id="namedview5"
   showgrid="false"
   inkscape:zoom="2.36"
   inkscape:cx="46.036085"
   inkscape:cy="50"
   inkscape:window-x="0"
   inkscape:window-y="0"
   inkscape:window-maximized="0"
   inkscape:current-layer="Layer_7" />
<path
   d="m 75.839602,33.804332 c 0,1.740966 -1.401838,3.153696 -3.130988,3.153696 h -45.41562 c -1.730454,0 -3.130988,-1.41273 -3.130988,-3.153696 0,-1.740967 1.400534,-3.153697 3.130988,-3.153697 h 45.41562 c 1.72915,0 3.130988,1.41273 3.130988,3.153697 z M 72.708614,49.46515 h -45.41562 c -1.730454,0 -3.130988,1.41273 -3.130988,3.153697 0,1.740967 1.400534,3.153696 3.130988,3.153696 h 45.41562 c 1.72915,0 3.130988,-1.412729 3.130988,-3.153696 0,-1.740967 -1.401838,-3.153697 -3.130988,-3.153697 z m 26.361064,-7.570446 c 0,14.122047 -8.83614,27.372298 -23.138794,34.816701 C 65.366898,98.049402 41.22791,98.675678 38.467268,98.675678 h -0.0014 l -0.38469,-0.0066 c -1.367878,-0.0407 -2.550638,-0.974201 -2.920984,-2.300277 -0.367738,-1.323449 0.152572,-2.736179 1.29621,-3.489811 4.496312,-2.959379 8.088928,-6.328399 10.73351,-10.054539 C 21.43527,81.603442 0.92932203,63.711927 0.92932203,41.894704 0.92932203,19.289714 22.94143,0.90059322 50.000152,0.90059322 77.05757,0.90190617 99.069678,19.289714 99.069678,41.894704 z m -6.264584,0 c 0,-19.12437 -19.203216,-34.6880314 -42.803638,-34.6880314 -23.604334,0 -42.8062463,15.5636614 -42.8062463,34.6880314 0,19.126997 19.2032163,34.690659 42.8062463,34.690659 0.846318,0 1.687422,-0.02626 2.523308,-0.06697 0.04824,-0.0026 0.100404,-0.0026 0.151268,-0.0026 1.044532,0 2.02647,0.525178 2.606766,1.407479 0.612896,0.923 0.692442,2.103339 0.217772,3.105117 -1.682204,3.541014 -3.969482,6.839135 -6.84227,9.868101 7.41735,-2.002243 16.947236,-6.728848 22.072094,-17.848187 0.302536,-0.653847 0.820238,-1.184278 1.461822,-1.503323 C 85.099552,65.177191 92.805094,54.090675 92.805094,41.89472 z"
   id="path3"
   style="fill:#e6e6e6"
   inkscape:connector-curvature="0" />
</svg>