<?xml version="1.0" encoding="UTF-8" standalone="no"?>
<!-- Generator: Adobe Illustrator 18.0.0, SVG Export Plug-In . SVG Version: 6.00 Build 0)  -->

<svg
   xmlns:dc="http://purl.org/dc/elements/1.1/"
   xmlns:cc="http://creativecommons.org/ns#"
   xmlns:rdf="http://www.w3.org/1999/02/22-rdf-syntax-ns#"
   xmlns:svg="http://www.w3.org/2000/svg"
   xmlns="http://www.w3.org/2000/svg"
   xmlns:sodipodi="http://sodipodi.sourceforge.net/DTD/sodipodi-0.dtd"
   xmlns:inkscape="http://www.inkscape.org/namespaces/inkscape"
   version="1.1"
   id="Capa_1"
   x="0px"
   y="0px"
   viewBox="0 0 31.999 28.028"
   style="enable-background:new 0 0 31.999 28.028;"
   xml:space="preserve"
   inkscape:version="0.48.5 r10040"
   width="100%"
   height="100%"
   sodipodi:docname="paintbrush9.svg"><metadata
   id="metadata42"><rdf:RDF><cc:Work
       rdf:about=""><dc:format>image/svg+xml</dc:format><dc:type
         rdf:resource="http://purl.org/dc/dcmitype/StillImage" /></cc:Work></rdf:RDF></metadata><defs
   id="defs40" /><sodipodi:namedview
   pagecolor="#ffffff"
   bordercolor="#666666"
   borderopacity="1"
   objecttolerance="10"
   gridtolerance="10"
   guidetolerance="10"
   inkscape:pageopacity="0"
   inkscape:pageshadow="2"
   inkscape:window-width="640"
   inkscape:window-height="480"
   id="namedview38"
   showgrid="false"
   inkscape:zoom="8.4201513"
   inkscape:cx="15.761806"
   inkscape:cy="14.014"
   inkscape:window-x="265"
   inkscape:window-y="120"
   inkscape:window-maximized="0"
   inkscape:current-layer="Capa_1" />
<g
   id="_x31__20_"
   style="fill:#e6e6e6">
	<g
   id="g4"
   style="fill:#e6e6e6">
		<path
   style="fill-rule:evenodd;clip-rule:evenodd;fill:#e6e6e6"
   d="M31.132,0.857c-1.157-1.142-3.033-1.142-4.189,0L9.764,17.817    c-2.104-0.047-5.016,0.698-6.273,4.815C2.53,24.811,0,24.701,0,24.701c5.253,5.828,11.444,2.525,12.858,1.093    c1.242-1.259,1.421-2.798,1.288-4.029L31.132,4.993C32.289,3.851,32.289,1.999,31.132,0.857z M11.461,24.415    c-0.984,0.913-5.382,2.948-7.97,0.975c0,0,0.901-0.703,1.583-2.114c1.629-4.327,5.689-3.687,5.689-3.687l1.396,1.379    C12.173,20.981,13.202,22.801,11.461,24.415z M13.556,19.589c-0.129-0.127-1.396-1.379-1.396-1.379l2.095-2.068l1.396,1.379    L13.556,19.589z M29.735,3.614L17.047,16.142l-1.396-1.379L28.339,2.236c0.386-0.381,1.011-0.381,1.396,0    C30.121,2.616,30.121,3.234,29.735,3.614z"
   id="path6" />
	</g>
</g>
<g
   id="g8">
</g>
<g
   id="g10">
</g>
<g
   id="g12">
</g>
<g
   id="g14">
</g>
<g
   id="g16">
</g>
<g
   id="g18">
</g>
<g
   id="g20">
</g>
<g
   id="g22">
</g>
<g
   id="g24">
</g>
<g
   id="g26">
</g>
<g
   id="g28">
</g>
<g
   id="g30">
</g>
<g
   id="g32">
</g>
<g
   id="g34">
</g>
<g
   id="g36">
</g>
</svg>